<svg xmlns="http://www.w3.org/2000/svg" version="1.1" xmlns:xlink="http://www.w3.org/1999/xlink" xmlns:svgjs="http://svgjs.dev/svgjs" width="1440" height="560" preserveAspectRatio="none" viewBox="0 0 1440 560"><g mask="url(&quot;#SvgjsMask1023&quot;)" fill="none"><rect width="1440" height="560" x="0" y="0" fill="#0e2a47"></rect><path d="M1387.7363255485147 382.1727385308175L1295.1254130177538 271.803350808855 1184.7560252957912 364.414263339616 1277.3669378265522 474.78365106157855z" fill="rgba(28, 83, 142, 0.4)" class="triangle-float3"></path><path d="M626.73 63.87 a115.74 115.74 0 1 0 231.48 0 a115.74 115.74 0 1 0 -231.48 0z" fill="rgba(28, 83, 142, 0.4)" class="triangle-float3"></path><path d="M813.99 169.15 a137.25 137.25 0 1 0 274.5 0 a137.25 137.25 0 1 0 -274.5 0z" fill="rgba(28, 83, 142, 0.4)" class="triangle-float3"></path><path d="M415.50652462854384 350.037543072912L341.40661929948095 231.45290597613968 222.82198220270863 305.55281130520257 296.9218875317715 424.1374484019749z" fill="rgba(28, 83, 142, 0.4)" class="triangle-float1"></path><path d="M1275.1330168410977-44.251167432862346L1097.036897568767-13.0229935838547 1196.5067791633378 109.81208035815906z" fill="rgba(28, 83, 142, 0.4)" class="triangle-float3"></path><path d="M130.7970307722756 102.61783625436254L55.64164102726019 170.28805313155482 194.72466121555635 249.1860293104818z" fill="rgba(28, 83, 142, 0.4)" class="triangle-float3"></path><path d="M1139.6996597981702 343.29616670181633L1183.149165695408 432.3808555576459 1272.2338545512378 388.9313496604078 1228.7843486539998 299.8466608045783z" fill="rgba(28, 83, 142, 0.4)" class="triangle-float3"></path><path d="M410.37 536.92 a112.1 112.1 0 1 0 224.2 0 a112.1 112.1 0 1 0 -224.2 0z" fill="rgba(28, 83, 142, 0.4)" class="triangle-float3"></path><path d="M-85.67 371.79 a148.24 148.24 0 1 0 296.48 0 a148.24 148.24 0 1 0 -296.48 0z" fill="rgba(28, 83, 142, 0.4)" class="triangle-float2"></path><path d="M1327.942522911161 140.09900466521788L1246.0806771993557 27.4258402510886 1215.2693584970316 221.96085037702306z" fill="rgba(28, 83, 142, 0.4)" class="triangle-float1"></path></g><defs><mask id="SvgjsMask1023"><rect width="1440" height="560" fill="#ffffff"></rect></mask><style>
                @keyframes float1 {
                    0%{transform: translate(0, 0)}
                    50%{transform: translate(-30px, 0)}
                    100%{transform: translate(0, 0)}
                }

                .triangle-float1 {
                    animation: float1 5s infinite;
                }

                @keyframes float2 {
                    0%{transform: translate(0, 0)}
                    50%{transform: translate(-25px, -25px)}
                    100%{transform: translate(0, 0)}
                }

                .triangle-float2 {
                    animation: float2 4s infinite;
                }

                @keyframes float3 {
                    0%{transform: translate(0, 0)}
                    50%{transform: translate(0, -30px)}
                    100%{transform: translate(0, 0)}
                }

                .triangle-float3 {
                    animation: float3 6s infinite;
                }
            </style></defs></svg>