<svg xmlns="http://www.w3.org/2000/svg" version="1.1" xmlns:xlink="http://www.w3.org/1999/xlink" xmlns:svgjs="http://svgjs.dev/svgjs" width="1440" height="560" preserveAspectRatio="none" viewBox="0 0 1440 560"><g mask="url(&quot;#SvgjsMask1401&quot;)" fill="none"><rect width="1440" height="560" x="0" y="0" fill="url(&quot;#SvgjsLinearGradient1402&quot;)"></rect><path d="M-109.58 348.41L-109.58 348.41" stroke="rgba(0, 8, 104, 1)" stroke-width="1.5"></path><path d="M-109.58 348.41L64.99 372.3" stroke="rgba(0, 8, 104, 1)" stroke-width="1.5"></path><path d="M-109.58 348.41L-65.67 526.82" stroke="rgba(0, 8, 104, 1)" stroke-width="1.5"></path><path d="M-65.67 526.82L-65.67 526.82" stroke="rgba(0, 8, 104, 1)" stroke-width="1.5"></path><path d="M-65.67 526.82L49.32 514.28" stroke="rgba(0, 8, 104, 1)" stroke-width="1.5"></path><path d="M-65.67 526.82L-111.97 712.16" stroke="rgba(0, 8, 104, 1)" stroke-width="1.5"></path><path d="M-111.97 712.16L-111.97 712.16" stroke="rgba(0, 8, 104, 1)" stroke-width="1.5"></path><path d="M-111.97 712.16L104.79 702.06" stroke="rgba(0, 8, 104, 1)" stroke-width="1.5"></path><path d="M64.99 372.3L64.99 372.3" stroke="rgba(0, 8, 104, 1)" stroke-width="1.5"></path><path d="M64.99 372.3L49.32 514.28" stroke="rgba(0, 8, 104, 1)" stroke-width="1.5"></path><path d="M64.99 372.3L212.06 392.54" stroke="rgba(0, 8, 104, 1)" stroke-width="1.5"></path><path d="M64.99 372.3L-65.67 526.82" stroke="rgba(0, 8, 104, 1)" stroke-width="1.5"></path><path d="M64.99 372.3L341.58 494.96" stroke="rgba(0, 8, 104, 1)" stroke-width="1.5"></path><path d="M64.99 372.3L104.79 702.06" stroke="rgba(0, 8, 104, 1)" stroke-width="1.5"></path><path d="M49.32 514.28L49.32 514.28" stroke="rgba(0, 8, 104, 1)" stroke-width="1.5"></path><path d="M49.32 514.28L104.79 702.06" stroke="rgba(0, 8, 104, 1)" stroke-width="1.5"></path><path d="M49.32 514.28L212.06 392.54" stroke="rgba(0, 8, 104, 1)" stroke-width="1.5"></path><path d="M49.32 514.28L-109.58 348.41" stroke="rgba(0, 8, 104, 1)" stroke-width="1.5"></path><path d="M104.79 702.06L104.79 702.06" stroke="rgba(0, 8, 104, 1)" stroke-width="1.5"></path><path d="M104.79 702.06L225.43 690.8" stroke="rgba(0, 8, 104, 1)" stroke-width="1.5"></path><path d="M104.79 702.06L-65.67 526.82" stroke="rgba(0, 8, 104, 1)" stroke-width="1.5"></path><path d="M212.06 392.54L212.06 392.54" stroke="rgba(0, 8, 104, 1)" stroke-width="1.5"></path><path d="M212.06 392.54L341.58 494.96" stroke="rgba(0, 8, 104, 1)" stroke-width="1.5"></path><path d="M212.06 392.54L398.84 409.98" stroke="rgba(0, 8, 104, 1)" stroke-width="1.5"></path><path d="M225.43 690.8L225.43 690.8" stroke="rgba(0, 8, 104, 1)" stroke-width="1.5"></path><path d="M225.43 690.8L401.79 696.21" stroke="rgba(0, 8, 104, 1)" stroke-width="1.5"></path><path d="M225.43 690.8L341.58 494.96" stroke="rgba(0, 8, 104, 1)" stroke-width="1.5"></path><path d="M225.43 690.8L49.32 514.28" stroke="rgba(0, 8, 104, 1)" stroke-width="1.5"></path><path d="M225.43 690.8L212.06 392.54" stroke="rgba(0, 8, 104, 1)" stroke-width="1.5"></path><path d="M225.43 690.8L498.59 529.69" stroke="rgba(0, 8, 104, 1)" stroke-width="1.5"></path><path d="M398.84 409.98L398.84 409.98" stroke="rgba(0, 8, 104, 1)" stroke-width="1.5"></path><path d="M398.84 409.98L491.86 379.35" stroke="rgba(0, 8, 104, 1)" stroke-width="1.5"></path><path d="M398.84 409.98L341.58 494.96" stroke="rgba(0, 8, 104, 1)" stroke-width="1.5"></path><path d="M398.84 409.98L498.59 529.69" stroke="rgba(0, 8, 104, 1)" stroke-width="1.5"></path><path d="M398.84 409.98L668.23 399.23" stroke="rgba(0, 8, 104, 1)" stroke-width="1.5"></path><path d="M341.58 494.96L341.58 494.96" stroke="rgba(0, 8, 104, 1)" stroke-width="1.5"></path><path d="M341.58 494.96L498.59 529.69" stroke="rgba(0, 8, 104, 1)" stroke-width="1.5"></path><path d="M341.58 494.96L491.86 379.35" stroke="rgba(0, 8, 104, 1)" stroke-width="1.5"></path><path d="M341.58 494.96L401.79 696.21" stroke="rgba(0, 8, 104, 1)" stroke-width="1.5"></path><path d="M401.79 696.21L401.79 696.21" stroke="rgba(0, 8, 104, 1)" stroke-width="1.5"></path><path d="M401.79 696.21L552.51 646.42" stroke="rgba(0, 8, 104, 1)" stroke-width="1.5"></path><path d="M491.86 379.35L491.86 379.35" stroke="rgba(0, 8, 104, 1)" stroke-width="1.5"></path><path d="M498.59 529.69L498.59 529.69" stroke="rgba(0, 8, 104, 1)" stroke-width="1.5"></path><path d="M498.59 529.69L552.51 646.42" stroke="rgba(0, 8, 104, 1)" stroke-width="1.5"></path><path d="M552.51 646.42L552.51 646.42" stroke="rgba(0, 8, 104, 1)" stroke-width="1.5"></path><path d="M552.51 646.42L678.84 679.89" stroke="rgba(0, 8, 104, 1)" stroke-width="1.5"></path><path d="M552.51 646.42L692.28 499.39" stroke="rgba(0, 8, 104, 1)" stroke-width="1.5"></path><path d="M691.34 241.22L691.34 241.22" stroke="rgba(0, 8, 104, 1)" stroke-width="1.5"></path><path d="M691.34 241.22L668.23 399.23" stroke="rgba(0, 8, 104, 1)" stroke-width="1.5"></path><path d="M691.34 241.22L823.44 381.91" stroke="rgba(0, 8, 104, 1)" stroke-width="1.5"></path><path d="M691.34 241.22L491.86 379.35" stroke="rgba(0, 8, 104, 1)" stroke-width="1.5"></path><path d="M691.34 241.22L692.28 499.39" stroke="rgba(0, 8, 104, 1)" stroke-width="1.5"></path><path d="M691.34 241.22L966.08 211.28" stroke="rgba(0, 8, 104, 1)" stroke-width="1.5"></path><path d="M691.34 241.22L812.87 528.55" stroke="rgba(0, 8, 104, 1)" stroke-width="1.5"></path><path d="M668.23 399.23L668.23 399.23" stroke="rgba(0, 8, 104, 1)" stroke-width="1.5"></path><path d="M668.23 399.23L692.28 499.39" stroke="rgba(0, 8, 104, 1)" stroke-width="1.5"></path><path d="M668.23 399.23L823.44 381.91" stroke="rgba(0, 8, 104, 1)" stroke-width="1.5"></path><path d="M668.23 399.23L491.86 379.35" stroke="rgba(0, 8, 104, 1)" stroke-width="1.5"></path><path d="M668.23 399.23L812.87 528.55" stroke="rgba(0, 8, 104, 1)" stroke-width="1.5"></path><path d="M668.23 399.23L498.59 529.69" stroke="rgba(0, 8, 104, 1)" stroke-width="1.5"></path><path d="M692.28 499.39L692.28 499.39" stroke="rgba(0, 8, 104, 1)" stroke-width="1.5"></path><path d="M692.28 499.39L812.87 528.55" stroke="rgba(0, 8, 104, 1)" stroke-width="1.5"></path><path d="M678.84 679.89L678.84 679.89" stroke="rgba(0, 8, 104, 1)" stroke-width="1.5"></path><path d="M678.84 679.89L834.26 657.37" stroke="rgba(0, 8, 104, 1)" stroke-width="1.5"></path><path d="M678.84 679.89L692.28 499.39" stroke="rgba(0, 8, 104, 1)" stroke-width="1.5"></path><path d="M678.84 679.89L812.87 528.55" stroke="rgba(0, 8, 104, 1)" stroke-width="1.5"></path><path d="M823.44 381.91L823.44 381.91" stroke="rgba(0, 8, 104, 1)" stroke-width="1.5"></path><path d="M823.44 381.91L812.87 528.55" stroke="rgba(0, 8, 104, 1)" stroke-width="1.5"></path><path d="M823.44 381.91L989.06 341.13" stroke="rgba(0, 8, 104, 1)" stroke-width="1.5"></path><path d="M823.44 381.91L692.28 499.39" stroke="rgba(0, 8, 104, 1)" stroke-width="1.5"></path><path d="M823.44 381.91L966.08 211.28" stroke="rgba(0, 8, 104, 1)" stroke-width="1.5"></path><path d="M812.87 528.55L812.87 528.55" stroke="rgba(0, 8, 104, 1)" stroke-width="1.5"></path><path d="M812.87 528.55L834.26 657.37" stroke="rgba(0, 8, 104, 1)" stroke-width="1.5"></path><path d="M812.87 528.55L978.69 544.6" stroke="rgba(0, 8, 104, 1)" stroke-width="1.5"></path><path d="M812.87 528.55L958.68 642.57" stroke="rgba(0, 8, 104, 1)" stroke-width="1.5"></path><path d="M834.26 657.37L834.26 657.37" stroke="rgba(0, 8, 104, 1)" stroke-width="1.5"></path><path d="M834.26 657.37L958.68 642.57" stroke="rgba(0, 8, 104, 1)" stroke-width="1.5"></path><path d="M834.26 657.37L978.69 544.6" stroke="rgba(0, 8, 104, 1)" stroke-width="1.5"></path><path d="M973.77 -77.14L973.77 -77.14" stroke="rgba(0, 8, 104, 1)" stroke-width="1.5"></path><path d="M973.77 -77.14L949 53.24" stroke="rgba(0, 8, 104, 1)" stroke-width="1.5"></path><path d="M973.77 -77.14L1112.42 -112.09" stroke="rgba(0, 8, 104, 1)" stroke-width="1.5"></path><path d="M973.77 -77.14L1127.72 66.77" stroke="rgba(0, 8, 104, 1)" stroke-width="1.5"></path><path d="M973.77 -77.14L1254.37 -88.58" stroke="rgba(0, 8, 104, 1)" stroke-width="1.5"></path><path d="M973.77 -77.14L966.08 211.28" stroke="rgba(0, 8, 104, 1)" stroke-width="1.5"></path><path d="M973.77 -77.14L1135.56 187.96" stroke="rgba(0, 8, 104, 1)" stroke-width="1.5"></path><path d="M949 53.24L949 53.24" stroke="rgba(0, 8, 104, 1)" stroke-width="1.5"></path><path d="M949 53.24L966.08 211.28" stroke="rgba(0, 8, 104, 1)" stroke-width="1.5"></path><path d="M949 53.24L1127.72 66.77" stroke="rgba(0, 8, 104, 1)" stroke-width="1.5"></path><path d="M949 53.24L1135.56 187.96" stroke="rgba(0, 8, 104, 1)" stroke-width="1.5"></path><path d="M949 53.24L1112.42 -112.09" stroke="rgba(0, 8, 104, 1)" stroke-width="1.5"></path><path d="M949 53.24L989.06 341.13" stroke="rgba(0, 8, 104, 1)" stroke-width="1.5"></path><path d="M966.08 211.28L966.08 211.28" stroke="rgba(0, 8, 104, 1)" stroke-width="1.5"></path><path d="M966.08 211.28L989.06 341.13" stroke="rgba(0, 8, 104, 1)" stroke-width="1.5"></path><path d="M966.08 211.28L1135.56 187.96" stroke="rgba(0, 8, 104, 1)" stroke-width="1.5"></path><path d="M966.08 211.28L1127.72 66.77" stroke="rgba(0, 8, 104, 1)" stroke-width="1.5"></path><path d="M989.06 341.13L989.06 341.13" stroke="rgba(0, 8, 104, 1)" stroke-width="1.5"></path><path d="M989.06 341.13L1114.5 403.98" stroke="rgba(0, 8, 104, 1)" stroke-width="1.5"></path><path d="M978.69 544.6L978.69 544.6" stroke="rgba(0, 8, 104, 1)" stroke-width="1.5"></path><path d="M978.69 544.6L958.68 642.57" stroke="rgba(0, 8, 104, 1)" stroke-width="1.5"></path><path d="M978.69 544.6L1123.28 661.8" stroke="rgba(0, 8, 104, 1)" stroke-width="1.5"></path><path d="M978.69 544.6L1114.5 403.98" stroke="rgba(0, 8, 104, 1)" stroke-width="1.5"></path><path d="M958.68 642.57L958.68 642.57" stroke="rgba(0, 8, 104, 1)" stroke-width="1.5"></path><path d="M958.68 642.57L1123.28 661.8" stroke="rgba(0, 8, 104, 1)" stroke-width="1.5"></path><path d="M958.68 642.57L678.84 679.89" stroke="rgba(0, 8, 104, 1)" stroke-width="1.5"></path><path d="M958.68 642.57L1114.5 403.98" stroke="rgba(0, 8, 104, 1)" stroke-width="1.5"></path><path d="M1112.42 -112.09L1112.42 -112.09" stroke="rgba(0, 8, 104, 1)" stroke-width="1.5"></path><path d="M1112.42 -112.09L1254.37 -88.58" stroke="rgba(0, 8, 104, 1)" stroke-width="1.5"></path><path d="M1112.42 -112.09L1127.72 66.77" stroke="rgba(0, 8, 104, 1)" stroke-width="1.5"></path><path d="M1112.42 -112.09L1294.69 63.71" stroke="rgba(0, 8, 104, 1)" stroke-width="1.5"></path><path d="M1112.42 -112.09L1135.56 187.96" stroke="rgba(0, 8, 104, 1)" stroke-width="1.5"></path><path d="M1127.72 66.77L1127.72 66.77" stroke="rgba(0, 8, 104, 1)" stroke-width="1.5"></path><path d="M1127.72 66.77L1135.56 187.96" stroke="rgba(0, 8, 104, 1)" stroke-width="1.5"></path><path d="M1127.72 66.77L1294.69 63.71" stroke="rgba(0, 8, 104, 1)" stroke-width="1.5"></path><path d="M1127.72 66.77L1254.37 -88.58" stroke="rgba(0, 8, 104, 1)" stroke-width="1.5"></path><path d="M1135.56 187.96L1135.56 187.96" stroke="rgba(0, 8, 104, 1)" stroke-width="1.5"></path><path d="M1135.56 187.96L1294.21 216.13" stroke="rgba(0, 8, 104, 1)" stroke-width="1.5"></path><path d="M1114.5 403.98L1114.5 403.98" stroke="rgba(0, 8, 104, 1)" stroke-width="1.5"></path><path d="M1114.5 403.98L1251.88 359.58" stroke="rgba(0, 8, 104, 1)" stroke-width="1.5"></path><path d="M1114.5 403.98L1271.44 521.03" stroke="rgba(0, 8, 104, 1)" stroke-width="1.5"></path><path d="M1123.28 661.8L1123.28 661.8" stroke="rgba(0, 8, 104, 1)" stroke-width="1.5"></path><path d="M1123.28 661.8L1286.35 697.84" stroke="rgba(0, 8, 104, 1)" stroke-width="1.5"></path><path d="M1123.28 661.8L1271.44 521.03" stroke="rgba(0, 8, 104, 1)" stroke-width="1.5"></path><path d="M1123.28 661.8L1114.5 403.98" stroke="rgba(0, 8, 104, 1)" stroke-width="1.5"></path><path d="M1123.28 661.8L834.26 657.37" stroke="rgba(0, 8, 104, 1)" stroke-width="1.5"></path><path d="M1254.37 -88.58L1254.37 -88.58" stroke="rgba(0, 8, 104, 1)" stroke-width="1.5"></path><path d="M1254.37 -88.58L1294.69 63.71" stroke="rgba(0, 8, 104, 1)" stroke-width="1.5"></path><path d="M1294.69 63.71L1294.69 63.71" stroke="rgba(0, 8, 104, 1)" stroke-width="1.5"></path><path d="M1294.69 63.71L1294.21 216.13" stroke="rgba(0, 8, 104, 1)" stroke-width="1.5"></path><path d="M1294.69 63.71L1135.56 187.96" stroke="rgba(0, 8, 104, 1)" stroke-width="1.5"></path><path d="M1294.21 216.13L1294.21 216.13" stroke="rgba(0, 8, 104, 1)" stroke-width="1.5"></path><path d="M1294.21 216.13L1414.66 226.84" stroke="rgba(0, 8, 104, 1)" stroke-width="1.5"></path><path d="M1294.21 216.13L1251.88 359.58" stroke="rgba(0, 8, 104, 1)" stroke-width="1.5"></path><path d="M1294.21 216.13L1388.14 409.17" stroke="rgba(0, 8, 104, 1)" stroke-width="1.5"></path><path d="M1251.88 359.58L1251.88 359.58" stroke="rgba(0, 8, 104, 1)" stroke-width="1.5"></path><path d="M1251.88 359.58L1388.14 409.17" stroke="rgba(0, 8, 104, 1)" stroke-width="1.5"></path><path d="M1271.44 521.03L1271.44 521.03" stroke="rgba(0, 8, 104, 1)" stroke-width="1.5"></path><path d="M1271.44 521.03L1388.14 409.17" stroke="rgba(0, 8, 104, 1)" stroke-width="1.5"></path><path d="M1271.44 521.03L1251.88 359.58" stroke="rgba(0, 8, 104, 1)" stroke-width="1.5"></path><path d="M1286.35 697.84L1286.35 697.84" stroke="rgba(0, 8, 104, 1)" stroke-width="1.5"></path><path d="M1286.35 697.84L1418.91 663.75" stroke="rgba(0, 8, 104, 1)" stroke-width="1.5"></path><path d="M1286.35 697.84L1271.44 521.03" stroke="rgba(0, 8, 104, 1)" stroke-width="1.5"></path><path d="M1286.35 697.84L1447.58 560.62" stroke="rgba(0, 8, 104, 1)" stroke-width="1.5"></path><path d="M1286.35 697.84L1563.06 689.53" stroke="rgba(0, 8, 104, 1)" stroke-width="1.5"></path><path d="M1286.35 697.84L1388.14 409.17" stroke="rgba(0, 8, 104, 1)" stroke-width="1.5"></path><path d="M1450.53 -77.46L1450.53 -77.46" stroke="rgba(0, 8, 104, 1)" stroke-width="1.5"></path><path d="M1450.53 -77.46L1554.57 48.55" stroke="rgba(0, 8, 104, 1)" stroke-width="1.5"></path><path d="M1450.53 -77.46L1254.37 -88.58" stroke="rgba(0, 8, 104, 1)" stroke-width="1.5"></path><path d="M1450.53 -77.46L1294.69 63.71" stroke="rgba(0, 8, 104, 1)" stroke-width="1.5"></path><path d="M1450.53 -77.46L1414.66 226.84" stroke="rgba(0, 8, 104, 1)" stroke-width="1.5"></path><path d="M1450.53 -77.46L1605.29 214.43" stroke="rgba(0, 8, 104, 1)" stroke-width="1.5"></path><path d="M1414.66 226.84L1414.66 226.84" stroke="rgba(0, 8, 104, 1)" stroke-width="1.5"></path><path d="M1414.66 226.84L1388.14 409.17" stroke="rgba(0, 8, 104, 1)" stroke-width="1.5"></path><path d="M1414.66 226.84L1605.29 214.43" stroke="rgba(0, 8, 104, 1)" stroke-width="1.5"></path><path d="M1414.66 226.84L1565.26 350.81" stroke="rgba(0, 8, 104, 1)" stroke-width="1.5"></path><path d="M1414.66 226.84L1294.69 63.71" stroke="rgba(0, 8, 104, 1)" stroke-width="1.5"></path><path d="M1414.66 226.84L1251.88 359.58" stroke="rgba(0, 8, 104, 1)" stroke-width="1.5"></path><path d="M1388.14 409.17L1388.14 409.17" stroke="rgba(0, 8, 104, 1)" stroke-width="1.5"></path><path d="M1388.14 409.17L1447.58 560.62" stroke="rgba(0, 8, 104, 1)" stroke-width="1.5"></path><path d="M1388.14 409.17L1565.26 350.81" stroke="rgba(0, 8, 104, 1)" stroke-width="1.5"></path><path d="M1447.58 560.62L1447.58 560.62" stroke="rgba(0, 8, 104, 1)" stroke-width="1.5"></path><path d="M1447.58 560.62L1418.91 663.75" stroke="rgba(0, 8, 104, 1)" stroke-width="1.5"></path><path d="M1447.58 560.62L1572.69 554.82" stroke="rgba(0, 8, 104, 1)" stroke-width="1.5"></path><path d="M1418.91 663.75L1418.91 663.75" stroke="rgba(0, 8, 104, 1)" stroke-width="1.5"></path><path d="M1418.91 663.75L1563.06 689.53" stroke="rgba(0, 8, 104, 1)" stroke-width="1.5"></path><path d="M1554.57 48.55L1554.57 48.55" stroke="rgba(0, 8, 104, 1)" stroke-width="1.5"></path><path d="M1554.57 48.55L1605.29 214.43" stroke="rgba(0, 8, 104, 1)" stroke-width="1.5"></path><path d="M1605.29 214.43L1605.29 214.43" stroke="rgba(0, 8, 104, 1)" stroke-width="1.5"></path><path d="M1605.29 214.43L1565.26 350.81" stroke="rgba(0, 8, 104, 1)" stroke-width="1.5"></path><path d="M1605.29 214.43L1388.14 409.17" stroke="rgba(0, 8, 104, 1)" stroke-width="1.5"></path><path d="M1605.29 214.43L1294.21 216.13" stroke="rgba(0, 8, 104, 1)" stroke-width="1.5"></path><path d="M1565.26 350.81L1565.26 350.81" stroke="rgba(0, 8, 104, 1)" stroke-width="1.5"></path><path d="M1572.69 554.82L1572.69 554.82" stroke="rgba(0, 8, 104, 1)" stroke-width="1.5"></path><path d="M1572.69 554.82L1563.06 689.53" stroke="rgba(0, 8, 104, 1)" stroke-width="1.5"></path><path d="M1572.69 554.82L1418.91 663.75" stroke="rgba(0, 8, 104, 1)" stroke-width="1.5"></path><path d="M1563.06 689.53L1563.06 689.53" stroke="rgba(0, 8, 104, 1)" stroke-width="1.5"></path><path d="M1563.06 689.53L1447.58 560.62" stroke="rgba(0, 8, 104, 1)" stroke-width="1.5"></path><circle r="5" cx="-109.58" cy="348.41" fill="rgba(0, 8, 104, 1)"></circle><circle r="5" cx="-65.67" cy="526.82" fill="rgba(0, 8, 104, 1)"></circle><circle r="5" cx="-111.97" cy="712.16" fill="rgba(0, 8, 104, 1)"></circle><circle r="5" cx="64.99" cy="372.3" fill="rgba(0, 8, 104, 1)"></circle><circle r="5" cx="49.32" cy="514.28" fill="rgba(0, 8, 104, 1)"></circle><circle r="5" cx="104.79" cy="702.06" fill="rgba(0, 8, 104, 1)"></circle><circle r="5" cx="212.06" cy="392.54" fill="rgba(0, 8, 104, 1)"></circle><circle r="5" cx="225.43" cy="690.8" fill="rgba(0, 8, 104, 1)"></circle><circle r="5" cx="398.84" cy="409.98" fill="rgba(0, 8, 104, 1)"></circle><circle r="5" cx="341.58" cy="494.96" fill="rgba(0, 8, 104, 1)"></circle><circle r="5" cx="401.79" cy="696.21" fill="rgba(0, 8, 104, 1)"></circle><circle r="5" cx="491.86" cy="379.35" fill="rgba(0, 8, 104, 1)"></circle><circle r="5" cx="498.59" cy="529.69" fill="rgba(0, 8, 104, 1)"></circle><circle r="5" cx="552.51" cy="646.42" fill="rgba(0, 8, 104, 1)"></circle><circle r="5" cx="691.34" cy="241.22" fill="rgba(0, 8, 104, 1)"></circle><circle r="5" cx="668.23" cy="399.23" fill="rgba(0, 8, 104, 1)"></circle><circle r="5" cx="692.28" cy="499.39" fill="rgba(0, 8, 104, 1)"></circle><circle r="5" cx="678.84" cy="679.89" fill="rgba(0, 8, 104, 1)"></circle><circle r="5" cx="823.44" cy="381.91" fill="rgba(0, 8, 104, 1)"></circle><circle r="5" cx="812.87" cy="528.55" fill="rgba(0, 8, 104, 1)"></circle><circle r="5" cx="834.26" cy="657.37" fill="rgba(0, 8, 104, 1)"></circle><circle r="5" cx="973.77" cy="-77.14" fill="rgba(0, 8, 104, 1)"></circle><circle r="5" cx="949" cy="53.24" fill="rgba(0, 8, 104, 1)"></circle><circle r="5" cx="966.08" cy="211.28" fill="rgba(0, 8, 104, 1)"></circle><circle r="5" cx="989.06" cy="341.13" fill="rgba(0, 8, 104, 1)"></circle><circle r="5" cx="978.69" cy="544.6" fill="rgba(0, 8, 104, 1)"></circle><circle r="5" cx="958.68" cy="642.57" fill="rgba(0, 8, 104, 1)"></circle><circle r="5" cx="1112.42" cy="-112.09" fill="rgba(0, 8, 104, 1)"></circle><circle r="5" cx="1127.72" cy="66.77" fill="rgba(0, 8, 104, 1)"></circle><circle r="5" cx="1135.56" cy="187.96" fill="rgba(0, 8, 104, 1)"></circle><circle r="5" cx="1114.5" cy="403.98" fill="rgba(0, 8, 104, 1)"></circle><circle r="5" cx="1123.28" cy="661.8" fill="rgba(0, 8, 104, 1)"></circle><circle r="5" cx="1254.37" cy="-88.58" fill="rgba(0, 8, 104, 1)"></circle><circle r="5" cx="1294.69" cy="63.71" fill="rgba(0, 8, 104, 1)"></circle><circle r="5" cx="1294.21" cy="216.13" fill="rgba(0, 8, 104, 1)"></circle><circle r="5" cx="1251.88" cy="359.58" fill="rgba(0, 8, 104, 1)"></circle><circle r="5" cx="1271.44" cy="521.03" fill="rgba(0, 8, 104, 1)"></circle><circle r="5" cx="1286.35" cy="697.84" fill="rgba(0, 8, 104, 1)"></circle><circle r="5" cx="1450.53" cy="-77.46" fill="rgba(0, 8, 104, 1)"></circle><circle r="5" cx="1414.66" cy="226.84" fill="rgba(0, 8, 104, 1)"></circle><circle r="5" cx="1388.14" cy="409.17" fill="rgba(0, 8, 104, 1)"></circle><circle r="5" cx="1447.58" cy="560.62" fill="rgba(0, 8, 104, 1)"></circle><circle r="5" cx="1418.91" cy="663.75" fill="rgba(0, 8, 104, 1)"></circle><circle r="5" cx="1554.57" cy="48.55" fill="rgba(0, 8, 104, 1)"></circle><circle r="5" cx="1605.29" cy="214.43" fill="rgba(0, 8, 104, 1)"></circle><circle r="5" cx="1565.26" cy="350.81" fill="rgba(0, 8, 104, 1)"></circle><circle r="5" cx="1572.69" cy="554.82" fill="rgba(0, 8, 104, 1)"></circle><circle r="5" cx="1563.06" cy="689.53" fill="rgba(0, 8, 104, 1)"></circle><path d="M-108.67 494.79L-108.67 494.79" stroke="hsl(228.70000000000005, 100%, 31.1%)" stroke-width="1.5"></path><path d="M-108.67 494.79L47.56 506.48" stroke="hsl(228.70000000000005, 100%, 31.1%)" stroke-width="1.5"></path><path d="M-108.67 494.79L84.95 708.89" stroke="hsl(228.70000000000005, 100%, 31.1%)" stroke-width="1.5"></path><path d="M-108.67 494.79L228.31 497.02" stroke="hsl(228.70000000000005, 100%, 31.1%)" stroke-width="1.5"></path><path d="M797.32 653.31L797.32 653.31" stroke="hsl(228.70000000000005, 100%, 31.1%)" stroke-width="1.5"></path><path d="M797.32 653.31L792.9 546.39" stroke="hsl(228.70000000000005, 100%, 31.1%)" stroke-width="1.5"></path><path d="M797.32 653.31L661.24 668.99" stroke="hsl(228.70000000000005, 100%, 31.1%)" stroke-width="1.5"></path><path d="M1247.48 107.09L1247.48 107.09" stroke="hsl(228.70000000000005, 100%, 31.1%)" stroke-width="1.5"></path><path d="M1247.48 107.09L1128.53 97.35" stroke="hsl(228.70000000000005, 100%, 31.1%)" stroke-width="1.5"></path><path d="M1247.48 107.09L1389.48 79.99" stroke="hsl(228.70000000000005, 100%, 31.1%)" stroke-width="1.5"></path><path d="M1247.48 107.09L1261.69 261.98" stroke="hsl(228.70000000000005, 100%, 31.1%)" stroke-width="1.5"></path><path d="M1247.48 107.09L1090.26 197.74" stroke="hsl(228.70000000000005, 100%, 31.1%)" stroke-width="1.5"></path><path d="M1247.48 107.09L1401.74 212.14" stroke="hsl(228.70000000000005, 100%, 31.1%)" stroke-width="1.5"></path><path d="M1247.48 107.09L1306.16 -101.9" stroke="hsl(228.70000000000005, 100%, 31.1%)" stroke-width="1.5"></path><path d="M1251.32 513.62L1251.32 513.62" stroke="hsl(228.70000000000005, 100%, 31.1%)" stroke-width="1.5"></path><path d="M1251.32 513.62L1403.01 521.83" stroke="hsl(228.70000000000005, 100%, 31.1%)" stroke-width="1.5"></path><path d="M1251.32 513.62L1296.8 368.23" stroke="hsl(228.70000000000005, 100%, 31.1%)" stroke-width="1.5"></path><path d="M1251.32 513.62L1096.91 551.47" stroke="hsl(228.70000000000005, 100%, 31.1%)" stroke-width="1.5"></path><path d="M1251.32 513.62L1251.39 682.98" stroke="hsl(228.70000000000005, 100%, 31.1%)" stroke-width="1.5"></path><path d="M1251.32 513.62L1112.36 652.69" stroke="hsl(228.70000000000005, 100%, 31.1%)" stroke-width="1.5"></path><path d="M1251.32 513.62L1109.04 338.63" stroke="hsl(228.70000000000005, 100%, 31.1%)" stroke-width="1.5"></path><path d="M1251.39 682.98L1251.39 682.98" stroke="hsl(228.70000000000005, 100%, 31.1%)" stroke-width="1.5"></path><path d="M1251.39 682.98L1112.36 652.69" stroke="hsl(228.70000000000005, 100%, 31.1%)" stroke-width="1.5"></path><path d="M1251.39 682.98L1415.36 685.16" stroke="hsl(228.70000000000005, 100%, 31.1%)" stroke-width="1.5"></path><path d="M1251.39 682.98L1096.91 551.47" stroke="hsl(228.70000000000005, 100%, 31.1%)" stroke-width="1.5"></path><path d="M1251.39 682.98L1403.01 521.83" stroke="hsl(228.70000000000005, 100%, 31.1%)" stroke-width="1.5"></path><path d="M1251.39 682.98L995.04 656.15" stroke="hsl(228.70000000000005, 100%, 31.1%)" stroke-width="1.5"></path><path d="M1401.74 212.14L1401.74 212.14" stroke="hsl(228.70000000000005, 100%, 31.1%)" stroke-width="1.5"></path><path d="M1401.74 212.14L1389.48 79.99" stroke="hsl(228.70000000000005, 100%, 31.1%)" stroke-width="1.5"></path><path d="M1401.74 212.14L1261.69 261.98" stroke="hsl(228.70000000000005, 100%, 31.1%)" stroke-width="1.5"></path><path d="M1575.55 351.41L1575.55 351.41" stroke="hsl(228.70000000000005, 100%, 31.1%)" stroke-width="1.5"></path><path d="M1575.55 351.41L1562.93 256.08" stroke="hsl(228.70000000000005, 100%, 31.1%)" stroke-width="1.5"></path><path d="M1575.55 351.41L1445.55 379.99" stroke="hsl(228.70000000000005, 100%, 31.1%)" stroke-width="1.5"></path><path d="M1575.55 351.41L1609.6 518.6" stroke="hsl(228.70000000000005, 100%, 31.1%)" stroke-width="1.5"></path><path d="M1575.55 351.41L1401.74 212.14" stroke="hsl(228.70000000000005, 100%, 31.1%)" stroke-width="1.5"></path><path d="M47.56 506.48L47.56 506.48" stroke="hsl(228.70000000000005, 100%, 31.1%)" stroke-width="1.5"></path><path d="M47.56 506.48L228.31 497.02" stroke="hsl(228.70000000000005, 100%, 31.1%)" stroke-width="1.5"></path><path d="M47.56 506.48L84.95 708.89" stroke="hsl(228.70000000000005, 100%, 31.1%)" stroke-width="1.5"></path><path d="M47.56 506.48L192.53 656.12" stroke="hsl(228.70000000000005, 100%, 31.1%)" stroke-width="1.5"></path><path d="M47.56 506.48L408 488.17" stroke="hsl(228.70000000000005, 100%, 31.1%)" stroke-width="1.5"></path><path d="M47.56 506.48L378.49 664.37" stroke="hsl(228.70000000000005, 100%, 31.1%)" stroke-width="1.5"></path><path d="M84.95 708.89L84.95 708.89" stroke="hsl(228.70000000000005, 100%, 31.1%)" stroke-width="1.5"></path><path d="M84.95 708.89L192.53 656.12" stroke="hsl(228.70000000000005, 100%, 31.1%)" stroke-width="1.5"></path><path d="M84.95 708.89L228.31 497.02" stroke="hsl(228.70000000000005, 100%, 31.1%)" stroke-width="1.5"></path><path d="M228.31 497.02L228.31 497.02" stroke="hsl(228.70000000000005, 100%, 31.1%)" stroke-width="1.5"></path><path d="M228.31 497.02L192.53 656.12" stroke="hsl(228.70000000000005, 100%, 31.1%)" stroke-width="1.5"></path><path d="M228.31 497.02L408 488.17" stroke="hsl(228.70000000000005, 100%, 31.1%)" stroke-width="1.5"></path><path d="M228.31 497.02L378.49 664.37" stroke="hsl(228.70000000000005, 100%, 31.1%)" stroke-width="1.5"></path><path d="M192.53 656.12L192.53 656.12" stroke="hsl(228.70000000000005, 100%, 31.1%)" stroke-width="1.5"></path><path d="M192.53 656.12L378.49 664.37" stroke="hsl(228.70000000000005, 100%, 31.1%)" stroke-width="1.5"></path><path d="M192.53 656.12L408 488.17" stroke="hsl(228.70000000000005, 100%, 31.1%)" stroke-width="1.5"></path><path d="M192.53 656.12L514.91 689.79" stroke="hsl(228.70000000000005, 100%, 31.1%)" stroke-width="1.5"></path><path d="M408 488.17L408 488.17" stroke="hsl(228.70000000000005, 100%, 31.1%)" stroke-width="1.5"></path><path d="M408 488.17L497.6 535.4" stroke="hsl(228.70000000000005, 100%, 31.1%)" stroke-width="1.5"></path><path d="M408 488.17L378.49 664.37" stroke="hsl(228.70000000000005, 100%, 31.1%)" stroke-width="1.5"></path><path d="M408 488.17L514.91 689.79" stroke="hsl(228.70000000000005, 100%, 31.1%)" stroke-width="1.5"></path><path d="M408 488.17L654.6 386.13" stroke="hsl(228.70000000000005, 100%, 31.1%)" stroke-width="1.5"></path><path d="M378.49 664.37L378.49 664.37" stroke="hsl(228.70000000000005, 100%, 31.1%)" stroke-width="1.5"></path><path d="M378.49 664.37L514.91 689.79" stroke="hsl(228.70000000000005, 100%, 31.1%)" stroke-width="1.5"></path><path d="M378.49 664.37L497.6 535.4" stroke="hsl(228.70000000000005, 100%, 31.1%)" stroke-width="1.5"></path><path d="M497.6 535.4L497.6 535.4" stroke="hsl(228.70000000000005, 100%, 31.1%)" stroke-width="1.5"></path><path d="M497.6 535.4L514.91 689.79" stroke="hsl(228.70000000000005, 100%, 31.1%)" stroke-width="1.5"></path><path d="M497.6 535.4L661.24 668.99" stroke="hsl(228.70000000000005, 100%, 31.1%)" stroke-width="1.5"></path><path d="M497.6 535.4L654.6 386.13" stroke="hsl(228.70000000000005, 100%, 31.1%)" stroke-width="1.5"></path><path d="M497.6 535.4L228.31 497.02" stroke="hsl(228.70000000000005, 100%, 31.1%)" stroke-width="1.5"></path><path d="M514.91 689.79L514.91 689.79" stroke="hsl(228.70000000000005, 100%, 31.1%)" stroke-width="1.5"></path><path d="M514.91 689.79L661.24 668.99" stroke="hsl(228.70000000000005, 100%, 31.1%)" stroke-width="1.5"></path><path d="M654.6 386.13L654.6 386.13" stroke="hsl(228.70000000000005, 100%, 31.1%)" stroke-width="1.5"></path><path d="M654.6 386.13L854.26 361.1" stroke="hsl(228.70000000000005, 100%, 31.1%)" stroke-width="1.5"></path><path d="M654.6 386.13L792.9 546.39" stroke="hsl(228.70000000000005, 100%, 31.1%)" stroke-width="1.5"></path><path d="M661.24 668.99L661.24 668.99" stroke="hsl(228.70000000000005, 100%, 31.1%)" stroke-width="1.5"></path><path d="M661.24 668.99L792.9 546.39" stroke="hsl(228.70000000000005, 100%, 31.1%)" stroke-width="1.5"></path><path d="M661.24 668.99L378.49 664.37" stroke="hsl(228.70000000000005, 100%, 31.1%)" stroke-width="1.5"></path><path d="M661.24 668.99L654.6 386.13" stroke="hsl(228.70000000000005, 100%, 31.1%)" stroke-width="1.5"></path><path d="M854.26 361.1L854.26 361.1" stroke="hsl(228.70000000000005, 100%, 31.1%)" stroke-width="1.5"></path><path d="M854.26 361.1L941.08 365.54" stroke="hsl(228.70000000000005, 100%, 31.1%)" stroke-width="1.5"></path><path d="M854.26 361.1L792.9 546.39" stroke="hsl(228.70000000000005, 100%, 31.1%)" stroke-width="1.5"></path><path d="M792.9 546.39L792.9 546.39" stroke="hsl(228.70000000000005, 100%, 31.1%)" stroke-width="1.5"></path><path d="M792.9 546.39L995.04 656.15" stroke="hsl(228.70000000000005, 100%, 31.1%)" stroke-width="1.5"></path><path d="M792.9 546.39L941.08 365.54" stroke="hsl(228.70000000000005, 100%, 31.1%)" stroke-width="1.5"></path><path d="M941.08 365.54L941.08 365.54" stroke="hsl(228.70000000000005, 100%, 31.1%)" stroke-width="1.5"></path><path d="M941.08 365.54L1109.04 338.63" stroke="hsl(228.70000000000005, 100%, 31.1%)" stroke-width="1.5"></path><path d="M941.08 365.54L1090.26 197.74" stroke="hsl(228.70000000000005, 100%, 31.1%)" stroke-width="1.5"></path><path d="M941.08 365.54L1096.91 551.47" stroke="hsl(228.70000000000005, 100%, 31.1%)" stroke-width="1.5"></path><path d="M941.08 365.54L654.6 386.13" stroke="hsl(228.70000000000005, 100%, 31.1%)" stroke-width="1.5"></path><path d="M995.04 656.15L995.04 656.15" stroke="hsl(228.70000000000005, 100%, 31.1%)" stroke-width="1.5"></path><path d="M995.04 656.15L1112.36 652.69" stroke="hsl(228.70000000000005, 100%, 31.1%)" stroke-width="1.5"></path><path d="M995.04 656.15L1096.91 551.47" stroke="hsl(228.70000000000005, 100%, 31.1%)" stroke-width="1.5"></path><path d="M995.04 656.15L797.32 653.31" stroke="hsl(228.70000000000005, 100%, 31.1%)" stroke-width="1.5"></path><path d="M995.04 656.15L1251.32 513.62" stroke="hsl(228.70000000000005, 100%, 31.1%)" stroke-width="1.5"></path><path d="M1128.53 97.35L1128.53 97.35" stroke="hsl(228.70000000000005, 100%, 31.1%)" stroke-width="1.5"></path><path d="M1128.53 97.35L1090.26 197.74" stroke="hsl(228.70000000000005, 100%, 31.1%)" stroke-width="1.5"></path><path d="M1128.53 97.35L1261.69 261.98" stroke="hsl(228.70000000000005, 100%, 31.1%)" stroke-width="1.5"></path><path d="M1128.53 97.35L1109.04 338.63" stroke="hsl(228.70000000000005, 100%, 31.1%)" stroke-width="1.5"></path><path d="M1090.26 197.74L1090.26 197.74" stroke="hsl(228.70000000000005, 100%, 31.1%)" stroke-width="1.5"></path><path d="M1090.26 197.74L1109.04 338.63" stroke="hsl(228.70000000000005, 100%, 31.1%)" stroke-width="1.5"></path><path d="M1090.26 197.74L1261.69 261.98" stroke="hsl(228.70000000000005, 100%, 31.1%)" stroke-width="1.5"></path><path d="M1109.04 338.63L1109.04 338.63" stroke="hsl(228.70000000000005, 100%, 31.1%)" stroke-width="1.5"></path><path d="M1109.04 338.63L1261.69 261.98" stroke="hsl(228.70000000000005, 100%, 31.1%)" stroke-width="1.5"></path><path d="M1109.04 338.63L1296.8 368.23" stroke="hsl(228.70000000000005, 100%, 31.1%)" stroke-width="1.5"></path><path d="M1109.04 338.63L1096.91 551.47" stroke="hsl(228.70000000000005, 100%, 31.1%)" stroke-width="1.5"></path><path d="M1096.91 551.47L1096.91 551.47" stroke="hsl(228.70000000000005, 100%, 31.1%)" stroke-width="1.5"></path><path d="M1096.91 551.47L1112.36 652.69" stroke="hsl(228.70000000000005, 100%, 31.1%)" stroke-width="1.5"></path><path d="M1112.36 652.69L1112.36 652.69" stroke="hsl(228.70000000000005, 100%, 31.1%)" stroke-width="1.5"></path><path d="M1112.36 652.69L1415.36 685.16" stroke="hsl(228.70000000000005, 100%, 31.1%)" stroke-width="1.5"></path><path d="M1112.36 652.69L1109.04 338.63" stroke="hsl(228.70000000000005, 100%, 31.1%)" stroke-width="1.5"></path><path d="M1306.16 -101.9L1306.16 -101.9" stroke="hsl(228.70000000000005, 100%, 31.1%)" stroke-width="1.5"></path><path d="M1306.16 -101.9L1406.76 -101.1" stroke="hsl(228.70000000000005, 100%, 31.1%)" stroke-width="1.5"></path><path d="M1306.16 -101.9L1389.48 79.99" stroke="hsl(228.70000000000005, 100%, 31.1%)" stroke-width="1.5"></path><path d="M1306.16 -101.9L1559.93 -82.38" stroke="hsl(228.70000000000005, 100%, 31.1%)" stroke-width="1.5"></path><path d="M1261.69 261.98L1261.69 261.98" stroke="hsl(228.70000000000005, 100%, 31.1%)" stroke-width="1.5"></path><path d="M1261.69 261.98L1296.8 368.23" stroke="hsl(228.70000000000005, 100%, 31.1%)" stroke-width="1.5"></path><path d="M1296.8 368.23L1296.8 368.23" stroke="hsl(228.70000000000005, 100%, 31.1%)" stroke-width="1.5"></path><path d="M1406.76 -101.1L1406.76 -101.1" stroke="hsl(228.70000000000005, 100%, 31.1%)" stroke-width="1.5"></path><path d="M1389.48 79.99L1389.48 79.99" stroke="hsl(228.70000000000005, 100%, 31.1%)" stroke-width="1.5"></path><path d="M1389.48 79.99L1564.91 48.78" stroke="hsl(228.70000000000005, 100%, 31.1%)" stroke-width="1.5"></path><path d="M1445.55 379.99L1445.55 379.99" stroke="hsl(228.70000000000005, 100%, 31.1%)" stroke-width="1.5"></path><path d="M1445.55 379.99L1403.01 521.83" stroke="hsl(228.70000000000005, 100%, 31.1%)" stroke-width="1.5"></path><path d="M1445.55 379.99L1296.8 368.23" stroke="hsl(228.70000000000005, 100%, 31.1%)" stroke-width="1.5"></path><path d="M1403.01 521.83L1403.01 521.83" stroke="hsl(228.70000000000005, 100%, 31.1%)" stroke-width="1.5"></path><path d="M1403.01 521.83L1415.36 685.16" stroke="hsl(228.70000000000005, 100%, 31.1%)" stroke-width="1.5"></path><path d="M1403.01 521.83L1296.8 368.23" stroke="hsl(228.70000000000005, 100%, 31.1%)" stroke-width="1.5"></path><path d="M1415.36 685.16L1415.36 685.16" stroke="hsl(228.70000000000005, 100%, 31.1%)" stroke-width="1.5"></path><path d="M1415.36 685.16L1556.86 668.27" stroke="hsl(228.70000000000005, 100%, 31.1%)" stroke-width="1.5"></path><path d="M1415.36 685.16L1251.32 513.62" stroke="hsl(228.70000000000005, 100%, 31.1%)" stroke-width="1.5"></path><path d="M1415.36 685.16L1609.6 518.6" stroke="hsl(228.70000000000005, 100%, 31.1%)" stroke-width="1.5"></path><path d="M1559.93 -82.38L1559.93 -82.38" stroke="hsl(228.70000000000005, 100%, 31.1%)" stroke-width="1.5"></path><path d="M1559.93 -82.38L1564.91 48.78" stroke="hsl(228.70000000000005, 100%, 31.1%)" stroke-width="1.5"></path><path d="M1559.93 -82.38L1406.76 -101.1" stroke="hsl(228.70000000000005, 100%, 31.1%)" stroke-width="1.5"></path><path d="M1559.93 -82.38L1389.48 79.99" stroke="hsl(228.70000000000005, 100%, 31.1%)" stroke-width="1.5"></path><path d="M1559.93 -82.38L1401.74 212.14" stroke="hsl(228.70000000000005, 100%, 31.1%)" stroke-width="1.5"></path><path d="M1564.91 48.78L1564.91 48.78" stroke="hsl(228.70000000000005, 100%, 31.1%)" stroke-width="1.5"></path><path d="M1564.91 48.78L1562.93 256.08" stroke="hsl(228.70000000000005, 100%, 31.1%)" stroke-width="1.5"></path><path d="M1564.91 48.78L1406.76 -101.1" stroke="hsl(228.70000000000005, 100%, 31.1%)" stroke-width="1.5"></path><path d="M1562.93 256.08L1562.93 256.08" stroke="hsl(228.70000000000005, 100%, 31.1%)" stroke-width="1.5"></path><path d="M1562.93 256.08L1401.74 212.14" stroke="hsl(228.70000000000005, 100%, 31.1%)" stroke-width="1.5"></path><path d="M1562.93 256.08L1445.55 379.99" stroke="hsl(228.70000000000005, 100%, 31.1%)" stroke-width="1.5"></path><path d="M1562.93 256.08L1389.48 79.99" stroke="hsl(228.70000000000005, 100%, 31.1%)" stroke-width="1.5"></path><path d="M1609.6 518.6L1609.6 518.6" stroke="hsl(228.70000000000005, 100%, 31.1%)" stroke-width="1.5"></path><path d="M1609.6 518.6L1556.86 668.27" stroke="hsl(228.70000000000005, 100%, 31.1%)" stroke-width="1.5"></path><path d="M1556.86 668.27L1556.86 668.27" stroke="hsl(228.70000000000005, 100%, 31.1%)" stroke-width="1.5"></path><path d="M1556.86 668.27L1403.01 521.83" stroke="hsl(228.70000000000005, 100%, 31.1%)" stroke-width="1.5"></path><path d="M1556.86 668.27L1251.39 682.98" stroke="hsl(228.70000000000005, 100%, 31.1%)" stroke-width="1.5"></path><circle r="25" cx="-108.67" cy="494.79" fill="url(&quot;#SvgjsRadialGradient1403&quot;)"></circle><circle r="25" cx="797.32" cy="653.31" fill="url(&quot;#SvgjsRadialGradient1403&quot;)"></circle><circle r="25" cx="1247.48" cy="107.09" fill="url(&quot;#SvgjsRadialGradient1403&quot;)"></circle><circle r="25" cx="1251.32" cy="513.62" fill="url(&quot;#SvgjsRadialGradient1403&quot;)"></circle><circle r="25" cx="1251.39" cy="682.98" fill="url(&quot;#SvgjsRadialGradient1403&quot;)"></circle><circle r="25" cx="1401.74" cy="212.14" fill="url(&quot;#SvgjsRadialGradient1403&quot;)"></circle><circle r="25" cx="1575.55" cy="351.41" fill="url(&quot;#SvgjsRadialGradient1403&quot;)"></circle><circle r="5" cx="47.56" cy="506.48" fill="#808bbd"></circle><circle r="5" cx="84.95" cy="708.89" fill="#808bbd"></circle><circle r="5" cx="228.31" cy="497.02" fill="#808bbd"></circle><circle r="5" cx="192.53" cy="656.12" fill="#808bbd"></circle><circle r="5" cx="408" cy="488.17" fill="#808bbd"></circle><circle r="5" cx="378.49" cy="664.37" fill="#808bbd"></circle><circle r="5" cx="497.6" cy="535.4" fill="#808bbd"></circle><circle r="5" cx="514.91" cy="689.79" fill="#808bbd"></circle><circle r="5" cx="654.6" cy="386.13" fill="#808bbd"></circle><circle r="5" cx="661.24" cy="668.99" fill="#808bbd"></circle><circle r="5" cx="854.26" cy="361.1" fill="#808bbd"></circle><circle r="5" cx="792.9" cy="546.39" fill="#808bbd"></circle><circle r="5" cx="941.08" cy="365.54" fill="#808bbd"></circle><circle r="5" cx="995.04" cy="656.15" fill="#808bbd"></circle><circle r="5" cx="1128.53" cy="97.35" fill="#808bbd"></circle><circle r="5" cx="1090.26" cy="197.74" fill="#808bbd"></circle><circle r="5" cx="1109.04" cy="338.63" fill="#808bbd"></circle><circle r="5" cx="1096.91" cy="551.47" fill="#808bbd"></circle><circle r="5" cx="1112.36" cy="652.69" fill="#808bbd"></circle><circle r="5" cx="1306.16" cy="-101.9" fill="#808bbd"></circle><circle r="5" cx="1261.69" cy="261.98" fill="#808bbd"></circle><circle r="5" cx="1296.8" cy="368.23" fill="#808bbd"></circle><circle r="5" cx="1406.76" cy="-101.1" fill="#808bbd"></circle><circle r="5" cx="1389.48" cy="79.99" fill="#808bbd"></circle><circle r="5" cx="1445.55" cy="379.99" fill="#808bbd"></circle><circle r="5" cx="1403.01" cy="521.83" fill="#808bbd"></circle><circle r="5" cx="1415.36" cy="685.16" fill="#808bbd"></circle><circle r="5" cx="1559.93" cy="-82.38" fill="#808bbd"></circle><circle r="5" cx="1564.91" cy="48.78" fill="#808bbd"></circle><circle r="5" cx="1562.93" cy="256.08" fill="#808bbd"></circle><circle r="5" cx="1609.6" cy="518.6" fill="#808bbd"></circle><circle r="5" cx="1556.86" cy="668.27" fill="#808bbd"></circle></g><defs><mask id="SvgjsMask1401"><rect width="1440" height="560" fill="#ffffff"></rect></mask><linearGradient x1="84.72%" y1="139.29%" x2="15.28%" y2="-39.29%" gradientUnits="userSpaceOnUse" id="SvgjsLinearGradient1402"><stop stop-color="#0e2a47" offset="0"></stop><stop stop-color="rgba(0, 0, 0, 1)" offset="1"></stop></linearGradient><radialGradient id="SvgjsRadialGradient1403"><stop stop-color="#ffffff" offset="0.1"></stop><stop stop-color="rgba(0, 23, 122, 1)" offset="0.2"></stop><stop stop-color="rgba(0, 23, 122, 0)" offset="1"></stop></radialGradient></defs></svg>